<svg viewBox="0 0 1022.001 1054.237" xmlns="http://www.w3.org/2000/svg"><path d="M111.457 21.333h798.766l.58-.002c30.613 0 58.325 12.426 78.366 32.51 20.094 20.262 32.51 48.163 32.51 78.963v.474-.025 354.383c.02.816.033 1.776.033 2.74 0 61.555-49.9 111.456-111.456 111.456H753.722V466.69H267.96v135.14H111.22c-30.618 0-58.335-12.423-78.384-32.506l-.002-.002C12.63 549.104.104 521.212 0 490.394V133.25v-.468c0-30.795 12.417-58.69 32.516-78.95l-.007.006c20.042-20.084 47.754-32.51 78.367-32.51.204 0 .408.002.61.003h-.03zm.464 46.44h-.641c-17.9 0-34.097 7.28-45.796 19.038l-.003.004c-11.766 11.83-19.04 28.137-19.04 46.144v.312-.016 357.123c.05 18.015 7.37 34.31 19.18 46.115 11.688 11.68 27.83 18.9 45.66 18.9h110.239v-135.14h578.64v135.14h110.086c35.907 0 65.016-29.108 65.016-65.015 0-.604-.008-1.206-.025-1.807l.002.088V133.253v-.257c0-18.02-7.273-34.34-19.044-46.186l.003.003c-11.703-11.762-27.9-19.04-45.8-19.04H111.922zM333.44 599.51h-88.7v-46.44h88.7zm443.5 0h-88.7v-46.44h88.7zm-443.5 313.005c-61.563-.494-111.347-50.23-111.92-111.726v-.056l46.44-.232c0 36.164 29.317 65.48 65.48 65.48s65.48-29.317 65.48-65.48v-221.89h46.44v221.983c-.08 61.78-50.14 111.84-111.913 111.92h-.008zm354.243 132.818h-.002c-61.554 0-111.455-49.9-111.455-111.456 0-.212 0-.424.002-.636v.034-354.662h46.44v354.8c0 36.165 29.317 65.48 65.48 65.48s65.48-29.316 65.48-65.48h46.44c-.08 61.78-50.14 111.842-111.913 111.92h-.008zm177.958-800.16h-88.7v-46.44h88.7zm-177.4 0h-532.2v-46.44h532.2z"/></svg>