<svg viewBox="0 0 72 72" xmlns="http://www.w3.org/2000/svg"><g style="fill:none;stroke:#000;stroke-linecap:round;stroke-linejoin:round;stroke-miterlimit:10;stroke-width:2"><path d="m58.6667 35.9167c.6667 1.6979.8506 2.9638.5159 4.5011l-1.1322 5.2009 1.9496 6.1068s.1206 4.7698.0014 8.2786c-.0369 1.087-.9494 1.9752-2.0371 1.9751h-.3531c-1.3464 0-1.9256-1.3248-1.9256-2.6712l-.8522-8.3913s-7.4907-5.4667-6.4583-13.6042"/><path d="m33.5155 46.5c3.8333-.2052 11.2345 0 14.9845-2.6875"/><path d="m51.6253 13.25c5.7603 1.5458 8.0746 4.2902 8.6494 7.2047 1.0392 5.269-4.012 9.798-9.2239 8.5024-2.5257-.6278-4.6488-.4429-4.6488-.4429l-18.402-.1392c-1.6875-8.125-6.4473-9.565-6.4473-9.565-.8653-5.56-4.3027-5.56-4.3027-5.56l-.6995 4.8391-1.4644.2501c-.7843.1339-1.5121.4951-2.0931 1.0387l-1.3525 1.2654-4.1141.4425c-.7613.0819-1.229.8738-.9332 1.5801l.8806 2.1021c.2896.6913.9063 1.1916 1.6425 1.3325l6.4671.7328s-1 13.1667 2.7292 15.1667c8.1309 4.3607 4.4071 16.5216 4.4071 16.5216-.8217 1.4362-.1868 3.4576 1.4679 3.4576h.0015c.7939 0 1.5235-.4367 1.8987-1.1364l2.0998-5.4678 1.3773-9.1449c.1081-.7178-.0364-1.4427-.3653-2.0898-.576-1.1333-1.2538-3.3607-.137-6.5257"/><path d="m16.2346 40.3005-4.3515 6.655c-.3212.4697-.5044 1.03-.5192 1.6187-.044 1.7553-.2547 5.5414 2.9991 7.69.8545.5642 2.4644.6389 3.3141.1114.7175-.4455 1.3028-1.2911.7739-2.8914"/><path d="m20.534 45.4366-4.409 3.0798"/><path d="m46.4167 48.5164c.4329 1.5669 3.0772 3.003 4.25 3.7336l-1.0698 7.1428c0 .6523.1869 1.281.5906 1.7322 1.0625 1.1875 2.4301.6653 2.4301.6653"/></g></svg>